<?xml version="1.0" standalone="no"?>
<!DOCTYPE svg PUBLIC "-//W3C//DTD SVG 20010904//EN"
 "http://www.w3.org/TR/2001/REC-SVG-20010904/DTD/svg10.dtd">
<svg version="1.0" xmlns="http://www.w3.org/2000/svg"
 width="960.000000pt" height="720.000000pt" viewBox="0 0 960.000000 720.000000"
 preserveAspectRatio="xMidYMid meet">

<g transform="translate(0.000000,720.000000) scale(0.100000,-0.100000)"
fill="#000000" stroke="none">
<path d="M4456 6953 c-11 -3 -112 -67 -225 -143 -459 -306 -890 -535 -1366
-724 -369 -146 -600 -221 -975 -316 -292 -75 -301 -84 -315 -370 -8 -149 8
-525 31 -750 95 -940 469 -1917 1039 -2715 186 -260 201 -279 440 -549 184
-209 469 -496 635 -642 315 -275 649 -517 752 -544 48 -14 89 3 219 91 512
342 1111 914 1514 1444 565 742 952 1591 1114 2445 70 367 83 508 88 988 6
469 7 460 -59 516 -41 36 -76 47 -338 111 -469 115 -1046 341 -1518 594 -74
39 -136 71 -139 71 -18 0 -351 200 -610 366 -190 123 -234 142 -287 127z m129
-458 c331 -211 608 -369 875 -498 574 -277 910 -407 1380 -531 96 -26 186 -51
199 -57 l24 -10 -6 -232 c-21 -799 -167 -1438 -488 -2131 -220 -475 -516 -935
-883 -1369 -54 -65 -104 -121 -110 -125 -6 -4 -25 -24 -43 -44 -62 -72 -424
-418 -555 -531 -176 -150 -458 -367 -479 -367 -22 0 -307 213 -454 339 -419
360 -845 830 -1142 1259 -475 687 -774 1429 -898 2222 -38 246 -45 345 -52
685 l-6 311 174 44 c208 51 645 194 854 277 478 191 1024 480 1450 769 28 19
59 34 70 34 11 0 52 -20 90 -45z"/>
<path d="M4445 6223 c-16 -9 -95 -55 -175 -103 -270 -162 -652 -375 -848 -474
-40 -20 -72 -41 -72 -48 0 -10 196 -224 327 -356 35 -35 63 -69 63 -76 0 -12
-21 -72 -104 -301 -20 -54 -34 -105 -32 -112 3 -7 128 -73 278 -147 832 -409
1055 -517 1106 -537 12 -5 22 -12 22 -16 0 -8 -177 -237 -384 -498 -60 -75
-105 -140 -100 -145 5 -4 221 -158 479 -342 855 -607 884 -628 901 -628 14 0
164 292 234 455 172 401 293 820 374 1300 13 75 19 115 46 322 12 94 29 450
30 629 0 86 -4 124 -12 131 -7 6 -44 13 -83 16 -114 10 -360 89 -585 187 -321
141 -911 458 -1298 697 -56 34 -110 63 -120 63 -9 -1 -30 -8 -47 -17z"/>
<path d="M3100 5494 c-260 -116 -468 -183 -650 -211 l-55 -8 -3 -160 c-4 -177
9 -399 38 -665 96 -860 384 -1671 818 -2300 223 -323 538 -652 837 -876 173
-130 380 -264 406 -264 16 0 276 167 361 232 259 198 480 407 654 618 162 196
301 391 291 407 -6 10 -14 15 -492 353 -812 574 -1045 743 -1045 755 0 8 71
105 158 217 206 265 282 366 288 381 3 9 -73 51 -223 124 -718 352 -880 431
-990 484 -90 43 -123 64 -122 76 0 10 35 115 78 233 65 179 76 219 67 237 -15
30 -356 383 -370 383 -6 -1 -27 -8 -46 -16z"/>
</g>
</svg>
